<svg width="118" height="18" viewBox="0 0 118 18" fill="none" xmlns="http://www.w3.org/2000/svg">
<path fill-rule="evenodd" clip-rule="evenodd" d="M9.33224 13.9716L3.5646 17.751L5.37667 11.0977L0 6.78027L6.88756 6.44769L9.33224 0L11.7769 6.44769L18.6645 6.78027L13.2878 11.0977L15.0999 17.751L9.33224 13.9716Z" fill="#FFC54F"/>
<path fill-rule="evenodd" clip-rule="evenodd" d="M33.9572 13.9716L28.1896 17.751L30.0017 11.0977L24.625 6.78027L31.5126 6.44769L33.9572 0L36.4019 6.44769L43.2895 6.78027L37.9128 11.0977L39.7249 17.751L33.9572 13.9716Z" fill="#FFC54F"/>
<path fill-rule="evenodd" clip-rule="evenodd" d="M58.5822 13.9716L52.8146 17.751L54.6267 11.0977L49.25 6.78027L56.1376 6.44769L58.5822 0L61.0269 6.44769L67.9145 6.78027L62.5378 11.0977L64.3499 17.751L58.5822 13.9716Z" fill="#FFC54F"/>
<path fill-rule="evenodd" clip-rule="evenodd" d="M83.2072 13.9716L77.4396 17.751L79.2517 11.0977L73.875 6.78027L80.7626 6.44769L83.2072 0L85.6519 6.44769L92.5395 6.78027L87.1628 11.0977L88.9749 17.751L83.2072 13.9716Z" fill="#FFC54F"/>
<path fill-rule="evenodd" clip-rule="evenodd" d="M107.832 13.9716L102.065 17.751L103.877 11.0977L98.5 6.78027L105.388 6.44769L107.832 0L110.277 6.44769L117.164 6.78027L111.788 11.0977L113.6 17.751L107.832 13.9716Z" fill="#FFC54F"/>
</svg>
