<?xml version="1.0" standalone="no"?>
<!DOCTYPE svg PUBLIC "-//W3C//DTD SVG 20010904//EN"
 "http://www.w3.org/TR/2001/REC-SVG-20010904/DTD/svg10.dtd">
<svg version="1.0" xmlns="http://www.w3.org/2000/svg"
 width="1200.000000pt" height="686.000000pt" viewBox="0 0 1200.000000 686.000000"
 preserveAspectRatio="xMidYMid meet">

<g transform="translate(0.000000,686.000000) scale(0.100000,-0.100000)"
fill="#000000" stroke="none">
<path d="M5935 6847 c-6 -7 -17 -31 -24 -54 -24 -75 21 -175 67 -147 14 9 17
29 20 113 l3 101 -28 0 c-15 -1 -33 -6 -38 -13z"/>
<path d="M6183 6676 c-24 -24 -43 -53 -43 -65 0 -25 37 -43 71 -34 29 8 69 47
69 68 0 8 5 15 10 15 15 0 12 29 -4 46 -26 25 -59 15 -103 -30z"/>
<path d="M6004 6456 c-12 -13 -24 -40 -27 -62 -6 -37 -15 -85 -38 -199 -5 -27
-12 -66 -15 -85 -3 -19 -9 -44 -14 -55 -5 -11 -12 -51 -14 -90 -12 -153 -17
-201 -26 -220 -5 -11 -12 -47 -15 -80 -3 -33 -10 -98 -15 -145 -12 -103 -26
-273 -39 -475 -5 -82 -12 -158 -16 -168 -6 -15 -15 -18 -49 -13 -23 3 -68 9
-101 13 -33 5 -66 12 -72 16 -19 12 -344 10 -357 -3 -5 -5 -20 -10 -32 -10
-13 0 -26 -4 -29 -10 -3 -5 -19 -10 -36 -10 -16 0 -29 -4 -29 -10 0 -5 -9 -10
-20 -10 -11 0 -20 -3 -20 -8 0 -4 -21 -18 -47 -32 -27 -14 -58 -35 -70 -47
-24 -23 -31 -53 -13 -53 6 0 10 -8 10 -17 0 -18 -66 -83 -84 -83 -5 0 -16 -8
-25 -18 -9 -9 -33 -30 -55 -46 -21 -16 -66 -57 -100 -90 -33 -34 -77 -72 -96
-86 -19 -13 -42 -32 -51 -42 -9 -10 -21 -18 -26 -18 -5 0 -18 -8 -29 -17 -38
-34 -130 -83 -154 -83 -11 0 -20 -4 -20 -10 0 -5 -12 -10 -26 -10 -35 0 -56
-24 -52 -61 3 -30 11 -37 80 -71 10 -4 40 -8 68 -8 27 0 50 -3 50 -8 0 -9 -68
-72 -78 -72 -5 0 -17 -8 -28 -17 -10 -10 -31 -24 -46 -32 -16 -8 -28 -18 -28
-23 0 -4 -6 -8 -14 -8 -18 0 -86 -68 -86 -85 0 -7 -5 -15 -12 -17 -15 -5 19
-58 38 -58 8 0 14 -4 14 -10 0 -5 11 -10 25 -10 51 0 41 -39 -17 -69 -16 -8
-28 -18 -28 -23 0 -4 -6 -8 -12 -8 -7 0 -26 -11 -42 -25 -16 -13 -37 -27 -47
-30 -11 -4 -19 -11 -19 -16 0 -5 -8 -9 -18 -9 -10 0 -24 -9 -32 -20 -8 -11
-22 -20 -32 -20 -10 0 -18 -3 -18 -7 0 -5 -10 -13 -23 -19 -59 -28 -152 -80
-155 -86 -2 -5 -12 -8 -23 -8 -10 0 -19 -4 -19 -10 0 -5 -9 -10 -20 -10 -11 0
-20 -4 -20 -10 0 -5 -9 -10 -20 -10 -11 0 -20 -4 -20 -10 0 -5 -6 -10 -13 -10
-12 0 -80 -29 -119 -50 -10 -6 -25 -10 -33 -10 -8 0 -15 -4 -15 -10 0 -5 -11
-10 -24 -10 -14 0 -28 -4 -31 -10 -3 -5 -15 -10 -26 -10 -10 0 -19 -4 -19 -10
0 -5 -13 -10 -30 -10 -16 0 -30 -4 -30 -10 0 -5 -13 -10 -30 -10 -16 0 -30 -4
-30 -10 0 -5 -11 -10 -24 -10 -14 0 -28 -5 -31 -10 -3 -6 -21 -10 -40 -10 -19
0 -37 -4 -40 -10 -3 -5 -19 -10 -35 -10 -16 0 -32 -5 -35 -10 -3 -6 -19 -10
-35 -10 -16 0 -32 -5 -35 -10 -3 -6 -28 -10 -55 -10 -27 0 -52 -4 -55 -10 -3
-5 -26 -10 -50 -10 -24 0 -46 -4 -49 -9 -3 -4 -29 -12 -58 -15 -29 -4 -80 -12
-113 -17 -33 -5 -80 -12 -105 -15 -25 -3 -49 -10 -55 -15 -5 -5 -26 -9 -46 -9
-21 0 -41 -4 -44 -10 -3 -5 -24 -10 -45 -10 -21 0 -42 -5 -45 -10 -3 -6 -24
-10 -46 -10 -21 0 -39 -4 -39 -10 0 -5 -13 -10 -29 -10 -17 0 -33 -4 -36 -10
-3 -5 -22 -10 -41 -10 -19 0 -34 -4 -34 -10 0 -5 -11 -10 -24 -10 -14 0 -28
-4 -31 -10 -3 -5 -15 -10 -26 -10 -10 0 -19 -4 -19 -10 0 -5 -13 -10 -30 -10
-16 0 -30 -4 -30 -10 0 -5 -9 -10 -20 -10 -11 0 -20 -4 -20 -10 0 -5 -9 -10
-20 -10 -11 0 -20 -4 -20 -10 0 -5 -9 -10 -20 -10 -11 0 -20 -4 -20 -10 0 -5
-5 -10 -11 -10 -6 0 -24 -10 -41 -21 -25 -18 -33 -20 -52 -10 -36 20 -268 3
-282 -20 -3 -5 -16 -9 -30 -9 -13 0 -24 -4 -24 -9 0 -5 -8 -11 -18 -14 -26 -8
-75 -40 -93 -59 -9 -10 -22 -18 -29 -18 -6 0 -24 -13 -38 -28 -15 -15 -43 -39
-62 -52 -19 -14 -52 -42 -74 -62 -21 -21 -45 -38 -52 -38 -8 0 -14 -4 -14 -10
0 -5 -6 -10 -13 -10 -7 0 -23 -9 -35 -20 -12 -11 -30 -20 -40 -20 -10 0 -22
-3 -26 -7 -16 -17 -86 -33 -142 -33 -52 0 -63 -3 -82 -25 -25 -29 -27 -42 -9
-58 16 -16 77 -37 105 -37 12 0 22 -3 22 -6 0 -11 -29 -34 -44 -34 -8 0 -18
-4 -21 -10 -8 -13 -119 -13 -143 -1 -9 5 -38 15 -65 23 -26 7 -47 16 -47 20 0
4 -9 8 -20 8 -11 0 -20 5 -20 10 0 6 -9 10 -20 10 -11 0 -20 5 -20 10 0 6 -6
10 -13 10 -7 0 -22 8 -33 17 -44 39 -62 45 -89 27 -15 -10 -25 -26 -25 -40 0
-32 23 -104 32 -104 5 0 8 -9 8 -20 0 -11 5 -20 10 -20 6 0 10 -6 10 -13 0 -7
13 -28 30 -47 16 -19 29 -38 30 -43 0 -12 88 -97 101 -97 6 0 19 -8 28 -17 19
-21 97 -63 117 -63 8 0 14 -4 14 -10 0 -5 14 -10 30 -10 17 0 30 -4 30 -10 0
-13 224 -13 248 -1 9 5 34 17 56 26 42 19 176 148 176 171 0 8 3 14 8 14 8 0
32 49 32 67 0 7 3 13 8 13 4 0 13 13 20 29 7 17 26 36 43 43 22 10 29 20 29
40 0 16 5 28 10 28 6 0 10 14 10 30 0 17 5 30 10 30 6 0 10 9 10 20 0 11 4 20
8 20 5 0 15 12 23 28 14 27 53 72 64 72 3 0 5 -9 5 -20 0 -11 -4 -20 -10 -20
-5 0 -10 -9 -10 -20 0 -11 -4 -20 -10 -20 -5 0 -10 -9 -10 -20 0 -11 -4 -20
-10 -20 -5 0 -10 -8 -10 -17 0 -10 -9 -33 -20 -51 -11 -18 -20 -43 -20 -57 0
-13 -4 -26 -9 -29 -5 -3 -12 -22 -15 -41 -3 -19 -9 -51 -12 -70 -3 -19 -10
-35 -14 -35 -8 0 -12 -30 -26 -170 -3 -30 -9 -64 -14 -75 -5 -11 -11 -40 -14
-65 -3 -25 -10 -76 -16 -115 -5 -38 -14 -104 -20 -145 -5 -41 -14 -109 -20
-150 -18 -124 -29 -283 -36 -517 -3 -123 -10 -223 -14 -223 -14 0 -24 -44 -31
-145 -4 -55 -11 -121 -14 -147 l-7 -48 -65 0 c-35 0 -73 5 -85 11 -29 16 -280
17 -286 1 -2 -7 -10 -12 -18 -12 -16 0 -51 -18 -72 -38 -18 -17 -7 -61 16 -64
28 -2 66 3 72 10 20 27 202 45 225 23 26 -25 303 -32 395 -11 34 8 155 14 320
16 146 2 287 8 313 14 109 23 336 11 399 -21 10 -5 25 -9 33 -9 8 0 15 -4 15
-10 0 -5 14 -10 30 -10 17 0 30 -5 30 -11 0 -18 411 2 435 21 6 4 136 13 290
20 154 6 297 16 318 22 27 8 44 8 62 0 16 -8 84 -12 180 -12 92 0 156 -4 160
-10 8 -13 175 -13 175 0 0 6 14 10 30 10 17 0 30 5 30 10 0 6 9 10 19 10 11 0
23 5 26 10 3 6 17 10 31 10 13 0 24 4 24 10 0 16 624 29 740 16 30 -4 64 -11
75 -16 39 -17 122 -25 255 -23 141 1 218 9 234 24 6 5 27 9 47 9 21 0 41 4 44
10 3 5 19 10 35 10 16 0 32 5 35 10 3 6 17 10 31 10 13 0 24 4 24 9 0 24 175
30 320 11 47 -6 162 -15 255 -20 201 -11 273 -18 300 -30 67 -31 574 -30 640
0 11 5 126 12 255 14 264 6 366 12 395 26 22 10 66 14 360 29 192 11 375 5
375 -10 0 -5 20 -9 44 -9 25 0 48 -4 51 -10 8 -14 338 -13 351 0 7 7 168 9
500 5 765 -8 854 -8 929 4 39 6 104 15 145 21 41 6 107 15 145 21 133 19 177
21 188 10 6 -6 35 -11 63 -11 29 0 56 -4 59 -10 3 -5 20 -10 37 -10 31 0 87
-15 120 -31 10 -5 29 -9 43 -9 14 0 25 -4 25 -10 0 -5 19 -10 43 -10 24 0 48
-5 54 -11 12 -12 167 -6 283 11 41 6 102 13 135 16 67 6 108 34 103 69 -5 34
-43 43 -143 33 -158 -16 -406 -20 -450 -8 -22 6 -58 16 -80 22 -22 5 -48 14
-57 19 -10 5 -31 9 -47 9 -17 0 -33 4 -36 10 -3 5 -24 10 -45 10 -21 0 -42 5
-45 10 -3 6 -20 10 -36 10 -19 0 -31 6 -35 17 -3 10 -10 26 -15 35 -5 10 -9
25 -9 33 0 8 -4 15 -10 15 -5 0 -10 9 -10 20 0 11 -9 35 -20 55 -11 20 -20 42
-20 50 0 8 -4 15 -10 15 -5 0 -10 6 -10 14 0 8 -9 31 -19 53 -10 21 -37 75
-60 121 -23 46 -41 90 -41 97 0 7 -3 15 -7 17 -5 1 -22 30 -39 63 -64 123 -79
150 -96 169 -10 11 -18 26 -18 33 0 7 -4 13 -8 13 -5 0 -15 12 -23 27 -8 15
-26 41 -41 57 -16 16 -28 33 -28 37 0 5 -18 28 -40 51 -22 24 -40 46 -40 50 0
5 -18 27 -40 49 -22 23 -40 46 -40 52 0 5 -8 17 -18 26 -10 9 -29 32 -42 51
-13 19 -32 42 -42 51 -10 9 -18 20 -18 25 0 5 -14 25 -30 44 -16 19 -30 39
-30 43 0 5 -13 22 -30 37 -16 15 -30 32 -30 38 0 5 -13 23 -30 40 -16 18 -30
35 -30 39 0 5 -17 26 -37 48 -19 22 -47 56 -62 75 -14 19 -33 42 -41 50 -9 8
-27 31 -40 50 -14 19 -49 60 -80 90 -30 31 -78 83 -106 115 -61 72 -123 135
-133 135 -3 0 -43 35 -88 79 -44 43 -96 89 -115 102 -18 13 -43 34 -56 46 -13
13 -27 23 -32 23 -5 0 -20 11 -34 25 -14 14 -29 25 -34 25 -5 0 -23 14 -40 30
-18 17 -34 30 -38 30 -6 0 -95 60 -104 69 -3 3 -17 12 -32 20 -16 8 -28 18
-28 23 0 4 -6 8 -13 8 -7 0 -22 8 -33 18 -10 9 -31 23 -46 31 -16 8 -28 18
-28 23 0 4 -7 8 -15 8 -9 0 -25 9 -37 20 -12 11 -28 20 -35 20 -7 0 -13 5 -13
10 0 6 -7 10 -15 10 -9 0 -25 9 -37 20 -12 11 -28 20 -35 20 -7 0 -13 5 -13
10 0 6 -9 10 -20 10 -11 0 -20 3 -20 8 0 8 -49 32 -67 32 -7 0 -13 4 -13 8 0
4 -22 19 -50 33 -27 13 -50 27 -50 32 0 4 -6 7 -13 7 -18 0 -67 24 -67 33 0 4
-9 7 -20 7 -11 0 -20 5 -20 10 0 6 -6 10 -14 10 -8 0 -40 14 -71 30 -31 17
-66 30 -76 30 -10 0 -19 5 -19 10 0 6 -9 10 -20 10 -11 0 -20 5 -20 10 0 6 -9
10 -20 10 -11 0 -20 5 -20 10 0 6 -11 10 -24 10 -14 0 -28 5 -31 10 -3 6 -15
10 -26 10 -10 0 -19 5 -19 10 0 6 -9 10 -19 10 -11 0 -23 5 -26 10 -3 6 -15
10 -25 10 -11 0 -35 9 -55 20 -20 11 -44 20 -55 20 -11 0 -20 5 -20 10 0 6
-11 10 -24 10 -14 0 -28 5 -31 10 -3 6 -15 10 -26 10 -10 0 -19 5 -19 10 0 6
-13 10 -30 10 -16 0 -30 5 -30 10 0 6 -13 10 -30 10 -16 0 -30 5 -30 10 0 6
-9 10 -19 10 -11 0 -23 4 -26 10 -3 5 -17 10 -31 10 -42 0 -27 34 16 38 36 3
42 5 125 42 90 41 95 43 95 52 0 4 6 8 14 8 16 0 134 114 155 150 40 68 47 89
68 194 6 31 -13 160 -28 188 -5 10 -9 25 -9 33 0 8 -4 15 -10 15 -5 0 -10 9
-10 20 0 11 -4 20 -10 20 -5 0 -10 7 -10 16 0 19 -133 153 -172 173 -16 8 -28
18 -28 23 0 4 -6 8 -13 8 -18 0 -67 24 -67 33 0 4 -7 7 -15 7 -8 0 -23 4 -33
9 -9 5 -37 15 -62 21 -25 7 -54 16 -65 20 -37 15 -147 34 -265 46 -66 7 -80
17 -80 55 0 16 -4 29 -10 29 -5 0 -10 11 -10 23 0 26 -79 117 -102 117 -8 0
-19 5 -26 12 -15 15 -205 14 -210 -1 -2 -6 -11 -11 -21 -11 -9 0 -21 -4 -27
-9 -5 -5 -19 -12 -31 -16 -18 -5 -23 -2 -23 12 0 27 -44 73 -69 73 -23 0 -51
-21 -51 -37 0 -15 -25 -63 -32 -63 -5 0 -11 -1 -15 -2 -5 -2 -11 139 -14 312
-4 173 -12 358 -18 410 -7 52 -16 138 -21 190 -5 52 -14 122 -19 155 -6 33
-13 78 -16 100 -4 22 -10 49 -15 60 -5 11 -12 40 -15 65 -3 25 -8 64 -11 88
-3 23 -10 42 -15 42 -5 0 -9 7 -9 16 0 19 -24 44 -42 43 -7 0 -23 -10 -34 -23z
m36 -396 c0 -33 -3 -40 -20 -40 -11 0 -20 5 -20 10 0 6 5 10 10 10 6 0 10 14
10 30 0 17 5 30 10 30 6 0 10 -18 10 -40z m28 -145 c18 -39 15 -85 -5 -92 -10
-4 -25 -15 -34 -25 -31 -34 -49 -23 -49 30 0 50 21 92 46 92 8 0 14 5 14 10 0
19 17 10 28 -15z m32 -245 c0 -56 -3 -70 -15 -70 -9 0 -25 -9 -37 -20 -12 -11
-28 -20 -35 -20 -7 0 -13 -4 -13 -9 0 -5 -8 -11 -17 -15 -10 -3 -24 -9 -30
-12 -16 -7 -18 81 -3 91 6 3 10 19 10 34 0 23 8 31 50 52 27 13 50 27 50 32 0
4 9 7 20 7 18 0 20 -7 20 -70z m20 -229 l0 -59 -64 -31 c-36 -17 -72 -31 -80
-31 -9 0 -16 -4 -16 -10 0 -5 -9 -10 -20 -10 -17 0 -20 7 -20 50 0 33 4 50 13
50 6 0 28 14 47 30 19 16 41 30 48 30 6 0 12 3 12 8 0 9 40 29 63 31 14 1 17
-8 17 -58z m0 -231 c0 -63 -2 -70 -20 -70 -11 0 -20 -4 -20 -10 0 -5 -9 -10
-20 -10 -11 0 -20 -4 -20 -10 0 -5 -9 -10 -20 -10 -11 0 -20 -4 -20 -10 0 -5
-13 -10 -30 -10 -16 0 -30 -4 -30 -10 0 -5 -12 -10 -26 -10 -24 0 -26 3 -20
31 3 17 6 44 6 60 0 18 5 29 14 29 17 0 180 81 184 92 2 5 8 8 13 8 5 0 9 -31
9 -70z m0 -245 l0 -65 -34 0 c-19 0 -38 -4 -41 -10 -3 -5 -21 -10 -40 -10 -19
0 -37 -4 -40 -10 -3 -5 -24 -10 -46 -10 -39 0 -39 0 -39 38 0 32 5 41 25 50
14 7 34 12 45 12 10 0 22 5 25 10 3 6 15 10 26 10 10 0 19 5 19 10 0 6 9 10
20 10 11 0 20 4 20 9 0 8 10 12 53 20 4 0 7 -28 7 -64z m539 -17 c38 -14 67
-39 89 -76 16 -28 15 -48 -4 -97 -8 -22 -17 -48 -21 -57 -3 -10 -14 -18 -24
-18 -10 0 -21 -4 -24 -10 -9 -15 -102 -12 -133 4 -53 28 -85 72 -86 119 -1 61
34 127 68 127 9 0 16 5 16 10 0 14 77 12 119 -2z m-339 -52 c0 -14 5 -28 10
-31 6 -3 10 -15 10 -26 0 -17 -7 -19 -60 -19 -48 0 -60 3 -60 16 0 19 24 44
42 44 8 0 20 9 28 20 19 27 30 25 30 -4z m-960 -121 c0 -8 -6 -15 -13 -15 -20
0 -107 -85 -107 -104 0 -9 -3 -16 -8 -16 -13 0 -32 -79 -32 -138 0 -54 -2 -60
-27 -73 -16 -8 -35 -22 -44 -31 -9 -10 -21 -18 -26 -18 -5 0 -18 -8 -29 -18
-10 -10 -35 -29 -54 -42 -19 -14 -48 -37 -64 -52 -16 -16 -33 -28 -38 -28 -5
0 -26 -17 -46 -38 -20 -21 -53 -49 -72 -62 -19 -13 -55 -45 -80 -70 -25 -25
-62 -58 -83 -74 -21 -15 -53 -42 -70 -60 -18 -17 -48 -42 -67 -56 -19 -13 -42
-31 -50 -40 -24 -27 -56 -40 -94 -40 -20 0 -36 -4 -36 -10 0 -5 -11 -10 -25
-10 -14 0 -25 4 -25 8 0 14 33 46 63 61 15 8 27 18 27 23 0 4 6 8 13 8 7 0 22
8 33 18 10 10 35 28 54 42 42 29 80 70 80 88 0 6 5 12 10 12 6 0 10 9 10 20 0
11 5 20 10 20 15 0 12 30 -5 47 -9 8 -31 15 -50 16 -27 1 -35 5 -35 19 0 11 7
18 18 18 10 0 24 9 32 20 8 11 20 20 26 20 7 0 43 30 81 68 38 37 97 92 133
122 35 30 77 67 93 83 17 15 36 27 43 27 8 0 14 4 14 8 0 12 118 72 141 72 10
0 21 5 24 10 3 6 15 10 26 10 47 0 68 68 29 92 -28 18 -25 37 8 44 15 3 36 10
47 15 11 5 45 10 75 12 30 2 63 4 73 5 9 1 17 -5 17 -13z m430 -25 c0 -5 -7
-10 -15 -10 -8 0 -15 5 -15 10 0 6 7 10 15 10 8 0 15 -4 15 -10z m-185 -60 c3
-5 17 -10 31 -10 13 0 24 -4 24 -10 0 -5 7 -10 15 -10 20 0 85 -65 85 -84 0
-8 5 -18 10 -21 6 -3 10 -30 10 -60 0 -30 -4 -57 -10 -60 -5 -3 -10 -17 -10
-31 0 -13 -4 -24 -10 -24 -5 0 -10 -6 -10 -12 0 -20 -45 -68 -64 -68 -9 0 -16
-4 -16 -10 0 -5 -11 -10 -24 -10 -14 0 -28 -4 -31 -10 -8 -13 -67 -13 -102 1
-85 35 -116 56 -164 116 -15 19 -30 70 -30 103 1 36 14 90 22 90 5 0 9 6 9 13
0 20 43 63 85 85 43 22 169 30 180 12z m797 -30 c15 -22 35 -40 43 -40 8 0 15
-3 15 -7 0 -9 49 -33 67 -33 7 0 13 -4 13 -10 0 -6 35 -10 85 -10 l85 0 72 71
72 70 76 -5 c131 -9 190 -18 190 -27 0 -5 18 -9 40 -9 22 0 40 -4 40 -10 0 -5
11 -10 24 -10 14 0 28 -4 31 -10 3 -5 15 -10 26 -10 10 0 19 -4 19 -10 0 -5 6
-10 13 -10 18 0 67 -24 67 -32 0 -5 8 -8 18 -8 10 0 24 -9 32 -20 8 -11 20
-20 26 -20 17 0 104 -89 104 -106 0 -8 3 -14 8 -14 4 0 13 -15 20 -32 7 -18
18 -41 23 -50 17 -32 10 -159 -11 -218 -11 -30 -25 -56 -30 -58 -6 -2 -10 -10
-10 -17 0 -8 -17 -27 -37 -42 -21 -15 -45 -36 -54 -45 -9 -10 -24 -18 -33 -18
-9 0 -16 -4 -16 -10 0 -5 -9 -10 -20 -10 -11 0 -20 -3 -20 -7 0 -9 -116 -45
-200 -63 -33 -7 -103 -10 -175 -7 -112 5 -143 9 -285 37 -30 6 -79 14 -107 17
-29 3 -53 9 -53 14 0 5 -26 9 -58 9 -32 0 -62 4 -67 9 -6 5 -30 12 -55 15 -44
5 -107 15 -260 38 -100 15 -489 15 -560 -1 -30 -6 -70 -14 -88 -18 -18 -3 -35
-9 -38 -14 -3 -5 -16 -9 -30 -9 -13 0 -24 -4 -24 -10 0 -5 -6 -10 -14 -10 -14
0 -96 -39 -106 -50 -3 -3 -21 -17 -40 -30 -19 -13 -40 -29 -45 -35 -20 -19
-75 -104 -75 -114 0 -6 -4 -11 -10 -11 -5 0 -10 -13 -10 -28 0 -15 -5 -33 -12
-40 -15 -15 -15 -245 1 -250 6 -2 11 -17 11 -33 0 -16 5 -29 10 -29 6 0 10 -9
10 -20 0 -11 4 -20 8 -20 4 0 15 -13 25 -29 21 -36 66 -82 96 -99 78 -45 94
-52 111 -52 11 0 20 -4 20 -9 0 -5 17 -12 38 -16 45 -10 433 -9 632 0 l145 7
-22 -21 c-12 -12 -29 -21 -38 -21 -8 0 -15 -4 -15 -10 0 -5 -13 -10 -28 -10
-15 0 -32 -4 -37 -9 -21 -19 -246 -38 -605 -51 -279 -10 -422 -20 -540 -40
-36 -6 -84 -13 -107 -16 -24 -3 -43 -10 -43 -15 0 -5 -13 -9 -30 -9 -16 0 -30
-4 -30 -10 0 -5 -6 -10 -13 -10 -18 0 -67 -24 -67 -32 0 -5 -9 -8 -20 -8 -11
0 -20 -4 -20 -8 0 -4 -13 -16 -30 -25 -34 -20 -130 -112 -130 -124 0 -4 -14
-24 -30 -43 -16 -19 -30 -41 -30 -47 0 -7 -4 -13 -10 -13 -5 0 -10 -9 -10 -20
0 -11 -4 -20 -10 -20 -5 0 -10 -9 -10 -20 0 -11 -4 -20 -10 -20 -5 0 -10 -9
-10 -20 0 -11 -4 -20 -10 -20 -5 0 -10 -11 -10 -23 0 -13 -3 -27 -7 -31 -11
-10 -33 -79 -33 -101 0 -12 -4 -25 -9 -30 -5 -6 -12 -30 -15 -55 -3 -25 -11
-79 -17 -120 -16 -97 -16 -530 0 -635 6 -44 14 -100 17 -125 3 -25 9 -54 14
-65 5 -11 11 -33 14 -50 5 -29 14 -70 37 -160 16 -63 29 -134 39 -210 5 -38
12 -89 16 -113 l7 -42 -91 0 -91 0 -5 112 c-2 62 -9 146 -15 186 -33 221 -42
303 -56 497 -3 50 -10 99 -15 110 -5 11 -11 38 -14 60 -8 72 -20 114 -47 167
-5 10 -9 25 -9 33 0 8 -4 15 -10 15 -5 0 -10 9 -10 20 0 11 -4 20 -9 20 -5 0
-12 8 -16 19 -8 25 -83 101 -101 101 -8 0 -14 3 -14 8 0 9 -72 32 -102 32 -23
0 -74 -15 -125 -37 -40 -17 -113 -86 -113 -107 0 -9 -4 -16 -10 -16 -5 0 -10
-9 -10 -20 0 -11 -4 -20 -10 -20 -5 0 -10 -9 -10 -19 0 -11 -4 -23 -10 -26 -6
-3 -10 -22 -10 -41 0 -19 -4 -34 -9 -34 -10 0 -14 -34 -33 -255 -15 -171 -15
-269 0 -445 14 -166 32 -291 57 -391 7 -25 5 -26 -55 -32 -34 -4 -67 -4 -72
-1 -7 5 -8 39 -3 103 12 136 9 651 -3 746 -13 98 -27 173 -36 200 -36 98 -59
136 -113 191 -65 67 -155 99 -273 97 -89 -1 -231 -16 -236 -24 -3 -5 -23 -9
-44 -9 -21 0 -42 -4 -45 -10 -3 -5 -22 -10 -41 -10 -19 0 -34 -4 -34 -10 0 -5
-11 -10 -24 -10 -14 0 -28 -4 -31 -10 -3 -5 -15 -10 -26 -10 -10 0 -19 -4 -19
-10 0 -5 -9 -10 -20 -10 -11 0 -20 -4 -20 -10 0 -5 -9 -10 -20 -10 -11 0 -20
-4 -20 -10 0 -5 -6 -10 -12 -10 -44 -1 -208 -178 -208 -225 0 -8 -3 -15 -8
-15 -9 0 -32 -73 -32 -104 0 -14 -4 -27 -9 -30 -21 -13 -33 -527 -17 -699 11
-104 9 -107 -76 -107 l-58 0 0 53 c0 29 5 58 10 63 13 13 15 617 3 637 -4 6
-11 39 -15 72 -10 95 -15 112 -52 197 -21 48 -82 110 -134 137 -44 22 -172 31
-172 11 0 -5 -7 -10 -16 -10 -8 0 -21 -6 -28 -12 -29 -30 -76 -108 -88 -147
-7 -22 -16 -41 -20 -41 -5 0 -8 -13 -8 -29 0 -17 -4 -33 -10 -36 -5 -3 -10
-19 -10 -34 0 -15 -4 -31 -9 -36 -9 -10 -13 -34 -26 -135 -4 -25 -10 -54 -15
-65 -20 -44 -41 -376 -34 -532 l6 -131 -58 -4 c-77 -5 -87 3 -79 63 4 26 11
132 16 236 5 103 14 229 19 278 16 153 29 257 39 330 21 141 32 221 37 270 3
28 9 59 14 70 5 11 11 38 14 60 14 101 19 126 27 131 5 3 9 20 9 39 0 19 5 37
10 40 6 3 10 19 10 36 0 16 5 29 10 29 6 0 10 11 10 24 0 14 5 28 10 31 6 3
10 15 10 26 0 10 5 19 10 19 6 0 10 9 10 20 0 11 5 20 10 20 6 0 10 9 10 20 0
11 4 20 9 20 5 0 11 8 14 18 14 42 79 126 146 186 18 17 49 46 69 64 20 17 42
32 49 32 7 0 13 5 13 10 0 6 8 10 18 10 10 0 24 9 32 20 8 11 22 20 32 20 10
0 18 5 18 10 0 6 9 10 20 10 11 0 20 5 20 10 0 6 9 10 19 10 11 0 23 5 26 10
3 6 17 10 31 10 13 0 24 5 24 10 0 6 11 10 23 10 13 0 27 3 31 7 10 11 79 33
103 33 12 0 25 5 28 10 3 6 22 10 41 10 19 0 34 4 34 9 0 5 19 11 43 14 23 3
65 10 92 16 109 23 162 32 200 37 22 3 49 9 60 14 20 9 59 15 160 26 28 3 54
10 60 15 5 5 31 9 57 9 26 0 48 5 48 10 0 6 18 10 39 10 22 0 42 4 45 9 3 5
23 11 43 15 88 13 113 19 119 27 3 5 21 9 40 9 19 0 34 5 34 10 0 6 14 10 30
10 17 0 30 5 30 10 0 6 14 10 30 10 17 0 30 5 30 10 0 6 9 10 20 10 11 0 29 5
40 10 11 6 29 15 40 20 11 6 29 10 40 10 11 0 20 5 20 10 0 6 9 10 20 10 11 0
20 5 20 10 0 6 9 10 20 10 11 0 20 5 20 10 0 6 6 10 14 10 16 0 140 62 144 73
2 4 12 7 23 7 10 0 19 5 19 10 0 6 9 10 20 10 11 0 20 3 20 8 0 4 23 18 50 31
28 14 50 29 50 33 0 4 9 8 20 8 11 0 20 5 20 10 0 6 6 10 13 10 7 0 22 8 33
18 18 16 33 25 88 56 11 6 29 19 40 29 11 9 24 17 28 17 5 0 18 9 30 20 12 11
28 20 35 20 7 0 13 5 13 10 0 6 6 10 13 10 7 0 22 8 33 18 10 10 35 29 54 42
19 13 44 32 54 42 11 10 23 18 28 18 4 0 27 18 49 40 23 22 46 40 51 40 5 0
26 17 46 38 20 20 54 49 74 65 20 15 60 50 88 77 28 27 68 62 88 77 20 16 58
49 84 76 26 26 50 47 55 47 4 0 27 18 51 40 23 22 46 40 51 40 4 0 21 12 37
28 16 15 42 33 57 41 15 8 27 18 27 23 0 16 51 8 57 -9 9 -24 73 -83 90 -83 7
0 13 -3 13 -7 0 -9 49 -33 67 -33 7 0 13 -4 13 -10 0 -5 13 -10 29 -10 17 0
33 -4 36 -10 3 -5 33 -10 65 -10 32 0 62 5 65 10 3 6 16 10 29 10 12 0 27 5
34 12 6 6 15 9 18 5 9 -9 -21 -37 -40 -37 -8 0 -18 -4 -21 -10 -4 -6 -57 -10
-125 -10 -68 0 -121 4 -125 10 -3 6 -13 10 -21 10 -8 0 -25 9 -37 20 -32 31
-61 22 -65 -18 -3 -27 3 -39 34 -68 21 -18 45 -34 54 -34 9 0 21 -5 27 -11 15
-15 252 -14 266 0 6 6 19 11 29 11 16 0 55 17 68 30 3 3 14 10 25 16 47 26 57
120 14 131 -19 5 -25 19 -11 25 13 5 72 95 72 110 0 8 5 19 11 25 16 16 15
198 0 217 -11 13 -6 18 24 31 21 8 48 15 61 15 12 0 26 5 29 10 3 6 26 10 50
10 24 0 47 5 50 10 3 6 31 10 61 10 30 0 54 5 54 10 0 6 36 10 88 10 l87 -1
27 -39z m-602 -787 c0 -9 -49 -33 -67 -33 -7 0 -13 -3 -13 -8 0 -9 -73 -32
-104 -32 -14 0 -28 5 -31 10 -3 6 -17 10 -31 10 -36 0 -29 15 14 28 90 26 232
41 232 25z m221 -5 c41 -12 52 -28 20 -28 -11 0 -23 -4 -26 -10 -8 -12 -55
-13 -55 -1 0 5 -9 11 -20 14 -11 3 -20 12 -20 21 0 19 45 21 101 4z m259 -48
c25 -5 68 -14 95 -19 28 -5 70 -15 95 -20 83 -20 203 -43 295 -56 22 -4 49
-10 60 -15 35 -14 101 -30 127 -30 13 0 28 -4 34 -8 5 -5 29 -15 54 -22 98
-29 415 -135 420 -140 3 -3 25 -12 50 -20 25 -8 47 -17 50 -20 3 -3 25 -12 50
-20 25 -8 60 -22 78 -32 18 -10 41 -18 52 -18 11 0 20 -4 20 -10 0 -5 9 -10
20 -10 11 0 20 -4 20 -10 0 -5 6 -10 14 -10 8 0 31 -9 53 -19 136 -68 208
-101 220 -101 7 0 13 -3 13 -8 0 -4 31 -23 70 -42 38 -19 70 -38 70 -42 0 -5
9 -8 20 -8 11 0 20 -4 20 -10 0 -5 9 -10 19 -10 11 0 21 -3 23 -7 4 -10 57
-42 81 -50 9 -3 17 -9 17 -14 0 -5 5 -9 11 -9 6 0 30 -13 54 -30 24 -16 46
-30 49 -30 5 0 120 -71 141 -87 6 -5 22 -14 38 -22 15 -8 27 -18 27 -21 0 -4
14 -13 30 -20 17 -7 30 -16 30 -20 0 -4 14 -13 30 -20 17 -7 30 -15 30 -19 0
-4 12 -14 28 -23 15 -9 41 -28 57 -42 17 -14 35 -26 40 -26 6 0 17 -9 25 -20
8 -11 20 -20 26 -20 6 0 29 -17 50 -38 22 -20 55 -48 74 -62 42 -29 420 -408
420 -420 0 -5 17 -26 38 -47 21 -21 49 -54 62 -73 13 -19 30 -41 37 -48 7 -8
26 -30 41 -50 15 -21 35 -44 44 -53 10 -9 18 -21 18 -26 0 -6 14 -24 30 -41
17 -18 30 -36 30 -40 0 -5 8 -17 18 -28 10 -10 29 -35 42 -54 13 -19 30 -41
37 -48 7 -7 13 -17 13 -22 0 -4 14 -22 30 -40 17 -18 30 -35 30 -39 0 -4 16
-24 35 -44 19 -20 35 -40 35 -45 0 -4 23 -32 50 -61 28 -30 50 -59 50 -64 0
-5 8 -17 18 -26 9 -9 37 -45 61 -81 25 -36 47 -67 50 -70 10 -9 42 -64 48 -82
3 -10 9 -18 14 -18 5 0 9 -9 9 -20 0 -11 5 -20 10 -20 6 0 10 -9 10 -20 0 -11
5 -20 10 -20 6 0 10 -9 10 -20 0 -11 5 -20 10 -20 6 0 10 -9 10 -20 0 -11 5
-20 10 -20 6 0 10 -9 10 -20 0 -11 5 -20 10 -20 6 0 10 -6 10 -14 0 -8 13 -38
28 -67 15 -30 34 -70 42 -89 7 -19 30 -71 50 -115 20 -44 40 -92 43 -106 6
-25 5 -26 -50 -28 -31 -1 -61 -5 -65 -8 -5 -2 -35 -9 -66 -14 -31 -6 -79 -14
-107 -20 -27 -6 -70 -12 -95 -15 -25 -3 -54 -10 -66 -15 -12 -6 -64 -8 -130
-5 -97 5 -880 28 -944 28 -14 0 -99 -6 -190 -12 -271 -20 -331 -17 -480 20
-72 18 -171 33 -225 33 -54 0 -300 -18 -325 -24 -16 -4 -16 2 1 106 26 158 26
475 0 630 -19 115 -39 205 -62 290 -5 22 -14 56 -18 75 -11 48 -99 311 -111
332 -6 10 -10 24 -10 31 0 8 -6 27 -14 43 -8 16 -22 47 -31 69 -39 92 -140
293 -167 332 -15 23 -28 46 -28 52 0 6 -4 11 -10 11 -5 0 -10 6 -10 13 0 6
-14 28 -30 47 -16 19 -30 39 -30 44 0 5 -8 16 -18 25 -10 9 -29 32 -42 51 -29
43 -240 254 -295 295 -22 17 -49 38 -59 48 -11 9 -25 17 -32 17 -7 0 -14 3
-16 8 -9 21 -253 152 -283 152 -8 0 -15 5 -15 10 0 6 -11 10 -24 10 -14 0 -28
5 -31 10 -3 6 -17 10 -30 10 -13 0 -26 4 -29 9 -3 5 -18 11 -33 14 -16 3 -46
11 -68 17 -179 51 -256 61 -405 49 -74 -6 -147 -14 -163 -19 -25 -8 -29 -5
-42 26 -8 19 -20 40 -27 47 -32 30 -139 49 -153 27 -3 -5 -15 -10 -26 -10 -21
0 -59 -19 -71 -35 -5 -6 -20 3 -37 23 -16 17 -33 32 -38 32 -5 0 -18 8 -29 18
-10 9 -32 23 -47 30 -33 14 -167 16 -167 2 0 -5 -7 -10 -15 -10 -34 0 -67 139
-53 220 10 58 34 120 46 120 15 0 62 -25 62 -32 0 -5 9 -8 19 -8 11 0 23 -4
26 -10 3 -5 17 -10 31 -10 13 0 24 5 24 10 0 6 7 10 15 10 21 0 65 45 65 67 0
10 7 26 15 37 11 15 21 17 57 11 88 -14 228 -4 228 16 0 5 13 9 29 9 16 0 31
6 34 13 3 9 9 9 27 -1 97 -58 109 -61 169 -40 67 23 116 55 141 92 20 32 28
37 50 31 14 -3 45 -10 70 -15z m-920 -90 c0 -33 -14 -38 -44 -15 -15 12 -16
16 -5 29 24 27 49 20 49 -14z m20 -540 c3 -3 14 -10 25 -15 18 -8 17 -9 -10
-13 -16 -2 -31 1 -33 7 -2 6 -12 11 -23 11 -10 0 -19 7 -19 15 0 12 7 14 28 9
15 -4 29 -10 32 -14z m985 -160 c3 -5 21 -10 40 -10 19 0 37 -4 40 -10 3 -5
17 -10 31 -10 13 0 24 -4 24 -8 0 -5 23 -15 50 -22 28 -7 50 -17 50 -22 0 -4
6 -8 14 -8 13 0 39 -11 134 -59 90 -45 128 -67 146 -83 11 -10 23 -18 28 -18
4 0 22 -13 40 -30 17 -16 35 -30 40 -30 12 0 258 -250 258 -261 0 -5 14 -23
30 -41 17 -17 30 -37 30 -44 0 -7 4 -14 8 -16 12 -4 72 -95 72 -107 0 -6 3
-11 8 -11 4 0 12 -10 18 -23 42 -83 80 -152 87 -155 4 -2 7 -10 7 -17 0 -11
14 -44 51 -117 5 -10 9 -25 9 -33 0 -8 5 -15 10 -15 6 0 10 -9 10 -19 0 -11 5
-23 10 -26 6 -3 10 -17 10 -31 0 -13 5 -24 10 -24 6 0 10 -13 10 -30 0 -16 5
-30 10 -30 6 0 10 -7 10 -15 0 -8 4 -23 9 -33 15 -29 31 -87 31 -110 0 -12 4
-22 8 -22 4 0 13 -21 20 -47 7 -27 17 -62 22 -79 6 -17 10 -40 10 -52 0 -11 5
-24 10 -27 6 -3 10 -22 10 -41 0 -19 4 -34 9 -34 5 0 12 -24 15 -52 3 -29 10
-87 17 -128 15 -90 16 -456 1 -555 -5 -38 -13 -95 -17 -127 -7 -55 -8 -56 -44
-63 -84 -15 -231 -26 -461 -34 -135 -5 -288 -15 -340 -22 -145 -19 -431 -12
-446 12 -3 5 -25 9 -49 9 -24 0 -45 4 -47 10 -2 5 -120 14 -278 20 -151 6
-298 15 -325 21 -85 19 -226 -1 -307 -42 -10 -5 -29 -9 -42 -9 -14 0 -27 -4
-30 -9 -3 -5 -23 -11 -43 -15 -21 -3 -72 -11 -113 -18 -99 -16 -266 -16 -360
0 -41 7 -95 15 -120 18 -25 3 -54 9 -65 14 -11 5 -67 11 -125 13 l-105 4 -9
34 c-5 19 -11 83 -13 143 -4 105 -14 136 -41 136 -23 0 -34 37 -43 152 -17
202 -20 233 -30 242 -5 6 -9 29 -9 52 0 24 -4 46 -10 49 -5 3 -10 21 -10 40 0
19 -4 37 -10 40 -5 3 -10 28 -10 54 0 26 -4 51 -9 57 -5 5 -12 32 -14 59 -3
28 -12 84 -19 125 -17 98 -17 422 0 520 7 41 16 95 19 120 3 25 9 49 14 55 5
5 9 24 9 42 0 18 5 33 10 33 6 0 10 11 10 24 0 14 5 28 10 31 6 3 10 15 10 26
0 10 4 19 9 19 5 0 11 13 14 29 3 16 13 36 22 44 8 9 15 23 15 31 0 9 5 16 10
16 6 0 10 7 10 15 0 20 165 185 185 185 8 0 15 5 15 10 0 6 9 10 20 10 11 0
20 4 20 8 0 5 23 15 51 22 27 8 52 18 55 22 3 4 21 8 40 8 19 0 34 4 34 9 0
13 97 20 445 31 372 11 670 33 690 51 5 5 26 9 47 9 21 0 38 5 38 10 0 6 11
10 24 10 50 0 156 73 156 108 0 6 5 12 10 12 6 0 10 9 10 20 0 17 7 20 39 20
22 0 43 -4 46 -10z m-4950 -439 c-3 -6 -13 -11 -21 -11 -8 0 -14 -4 -14 -10 0
-5 -9 -10 -20 -10 -11 0 -20 -4 -20 -8 0 -5 -12 -15 -27 -23 -33 -17 -173
-156 -173 -173 0 -6 -18 -26 -40 -45 -22 -19 -40 -43 -40 -53 0 -10 -4 -18
-10 -18 -5 0 -10 -13 -10 -30 0 -16 -4 -30 -10 -30 -5 0 -10 -7 -10 -15 0 -8
-4 -23 -9 -33 -5 -9 -20 -38 -32 -64 -13 -27 -27 -48 -31 -48 -5 0 -8 -6 -8
-14 0 -22 -64 -80 -117 -106 -26 -13 -56 -27 -65 -32 -25 -11 -166 -10 -173 2
-3 6 -17 10 -30 10 -13 0 -27 5 -30 10 -3 6 -15 10 -26 10 -10 0 -19 5 -19 10
0 6 -6 10 -14 10 -18 0 -156 134 -156 151 0 10 3 10 12 1 7 -7 22 -12 35 -12
13 0 23 -4 23 -10 0 -5 13 -10 29 -10 17 0 33 -4 36 -10 8 -12 189 -13 213 -1
9 5 30 15 47 22 38 18 115 94 115 114 0 8 5 15 10 15 6 0 10 13 10 29 0 23 7
32 30 43 17 7 30 16 30 20 0 5 9 8 20 8 11 0 20 4 20 9 0 5 9 13 20 16 11 4
31 16 43 28 12 13 38 33 57 47 19 13 46 36 60 50 14 14 41 37 60 50 19 13 42
32 51 42 9 10 24 18 33 18 9 0 16 4 16 9 0 11 64 42 105 51 34 8 40 6 30 -9z
m2358 -683 c28 -17 67 -60 67 -75 0 -7 5 -13 10 -13 6 0 10 -9 10 -20 0 -11 3
-20 8 -20 11 0 32 -51 32 -77 0 -13 5 -23 10 -23 6 0 10 -13 10 -29 0 -17 5
-33 10 -36 6 -3 10 -22 10 -41 0 -19 4 -34 9 -34 5 0 12 -30 15 -67 17 -206
27 -306 36 -373 6 -41 14 -122 19 -180 5 -58 12 -116 15 -130 3 -14 7 -53 10
-88 4 -61 3 -64 -29 -96 l-32 -33 -5 -134 c-5 -146 -18 -192 -56 -197 -12 -2
-22 -8 -22 -13 0 -5 -13 -9 -29 -9 -17 0 -33 -4 -36 -10 -3 -5 -26 -10 -50
-10 -24 0 -47 5 -50 10 -3 6 -26 10 -49 10 -24 0 -48 6 -54 12 -5 7 -13 58
-16 113 -8 159 -14 187 -45 215 -28 25 -38 55 -47 140 -3 25 -9 54 -14 65 -33
73 -50 832 -19 851 5 3 9 18 9 34 0 16 5 32 10 35 6 3 10 17 10 31 0 13 5 24
10 24 6 0 10 9 10 20 0 11 5 20 10 20 6 0 10 7 10 15 0 16 73 94 106 113 26
15 79 15 107 0z m-824 -104 c28 -4 54 -11 57 -15 3 -5 13 -9 23 -9 22 0 111
-83 111 -103 0 -9 5 -19 10 -22 6 -3 10 -17 10 -31 0 -13 4 -24 9 -24 5 0 12
-24 15 -52 3 -29 11 -91 17 -138 14 -98 16 -462 4 -690 -7 -130 -11 -158 -26
-170 -13 -12 -19 -37 -23 -100 -10 -151 -17 -209 -30 -219 -6 -5 -75 -12 -151
-15 -132 -4 -192 -10 -375 -36 -124 -18 -271 -23 -283 -11 -6 6 -23 11 -38 11
-15 0 -31 5 -34 10 -3 6 -14 10 -24 10 -34 0 -41 23 -41 151 -1 153 -13 204
-53 220 l-28 12 5 291 c6 328 24 556 47 581 5 5 9 17 9 27 0 10 5 18 10 18 6
0 10 7 10 15 0 8 28 43 63 78 44 46 82 73 132 96 39 18 78 37 87 42 10 5 27 9
37 9 11 0 23 5 26 10 3 6 21 10 40 10 19 0 37 5 40 10 3 6 18 10 32 10 15 0
40 4 57 9 47 15 148 29 177 25 14 -1 49 -6 78 -10z m-1296 -155 c31 -16 87
-76 87 -93 0 -8 5 -18 10 -21 6 -3 10 -19 10 -34 0 -15 4 -31 9 -36 44 -47 42
-803 -2 -895 -6 -14 -20 -32 -30 -41 -14 -14 -18 -37 -21 -135 -2 -66 -7 -127
-11 -136 -8 -21 -117 -40 -200 -36 l-60 3 -6 120 c-7 126 -19 175 -43 175 -11
0 -16 21 -21 83 -8 91 8 463 25 572 5 39 13 96 16 128 4 31 10 60 15 63 5 3 9
25 9 50 0 24 5 44 10 44 6 0 10 14 10 30 0 17 5 30 10 30 6 0 10 9 10 20 0 11
5 20 10 20 6 0 10 7 10 16 0 9 17 32 37 50 39 36 76 43 116 23z m2690 -1120
l37 -10 0 -84 c0 -46 3 -90 6 -99 5 -13 -12 -15 -113 -19 -65 -3 -135 -8 -155
-12 l-38 -7 0 121 0 121 113 0 c61 0 129 -5 150 -11z m-2307 -61 c31 -11 33
-15 39 -73 13 -115 19 -110 -127 -113 l-128 -3 0 101 0 100 92 0 c50 0 106 -5
124 -12z m1492 -33 c7 -14 12 -59 12 -100 l0 -75 -151 0 -151 0 6 38 c4 20 9
65 12 100 l6 62 128 0 c126 0 127 0 138 -25z m-2178 -34 c5 -11 10 -56 10
-101 l0 -81 -147 3 c-126 3 -147 5 -143 18 2 8 6 47 8 85 1 39 5 76 7 83 3 9
38 12 129 12 114 0 126 -2 136 -19z"/>
<path d="M6578 4855 c-15 -34 12 -75 50 -75 34 0 52 16 52 48 0 32 -23 52 -60
52 -23 0 -33 -6 -42 -25z"/>
<path d="M5463 4555 c-27 -29 -30 -75 -7 -110 14 -21 24 -25 68 -25 46 0 54 3
66 24 20 38 16 104 -6 121 -31 23 -95 18 -121 -10z"/>
<path d="M6770 4580 c-14 -11 -31 -20 -37 -20 -7 0 -13 -4 -13 -10 0 -5 -9
-10 -20 -10 -11 0 -20 -4 -20 -10 0 -5 -16 -10 -36 -10 -19 0 -45 -5 -56 -11
-22 -12 -77 -1 -130 27 -33 18 -31 18 -57 -5 -20 -17 -21 -23 -10 -43 31 -58
72 -73 192 -71 56 1 104 6 110 12 6 6 21 11 33 11 13 0 26 5 29 10 3 6 13 10
21 10 20 0 79 61 87 89 3 13 3 29 0 37 -8 20 -64 17 -93 -6z"/>
<path d="M7192 4571 c-10 -23 -10 -37 0 -70 7 -23 16 -41 20 -41 5 0 8 -5 8
-12 0 -16 51 -68 66 -68 7 0 14 -5 16 -11 2 -6 27 -12 56 -12 40 -1 55 4 67
19 16 21 20 104 5 104 -5 0 -10 6 -10 14 0 24 -47 46 -100 46 -39 0 -52 4 -57
18 -19 48 -53 55 -71 13z"/>
<path d="M6850 4370 c-8 -5 -27 -10 -42 -10 -16 0 -28 -4 -28 -10 0 -5 -7 -10
-15 -10 -19 0 -65 -44 -65 -62 0 -26 31 -58 56 -58 13 0 24 5 24 10 0 6 9 10
19 10 11 0 22 4 25 9 6 8 63 -6 76 -19 3 -3 21 -17 42 -32 20 -15 42 -33 50
-40 28 -28 102 -58 139 -58 59 0 89 31 89 92 0 26 -4 48 -10 48 -5 0 -10 8
-10 17 0 24 -85 100 -123 108 -55 12 -211 16 -227 5z"/>
<path d="M3760 3191 c0 -6 -18 -11 -40 -11 -22 0 -40 -4 -40 -10 0 -5 -7 -10
-15 -10 -9 0 -35 -9 -57 -20 -23 -11 -48 -20 -55 -20 -7 0 -13 -4 -13 -10 0
-5 -9 -10 -19 -10 -11 0 -23 -4 -26 -10 -3 -5 -17 -10 -31 -10 -13 0 -24 -4
-24 -10 0 -5 -9 -10 -19 -10 -11 0 -23 -4 -26 -10 -3 -5 -15 -10 -26 -10 -10
0 -27 -4 -37 -9 -9 -5 -38 -15 -64 -22 -48 -13 -62 -27 -52 -54 7 -17 89 -21
99 -5 3 6 21 10 40 10 19 0 37 5 40 10 3 6 19 10 36 10 16 0 29 5 29 10 0 6 9
10 20 10 11 0 28 4 38 9 9 5 40 19 67 31 28 12 68 32 90 43 22 11 59 30 83 41
35 17 42 25 40 46 -3 24 -38 43 -38 21z"/>
<path d="M3092 2960 c-27 -44 37 -82 75 -44 13 13 14 19 3 40 -17 30 -60 33
-78 4z"/>
<path d="M6360 6350 c0 -5 -9 -10 -20 -10 -11 0 -20 -4 -20 -10 0 -5 -7 -10
-15 -10 -21 0 -71 -50 -58 -59 5 -3 12 -14 16 -23 4 -13 17 -18 42 -18 19 0
35 5 35 10 0 6 8 10 18 10 9 0 32 9 50 20 35 22 43 60 18 86 -17 16 -66 19
-66 4z"/>
<path d="M5673 6305 c-16 -18 -17 -57 -1 -73 7 -7 24 -12 39 -12 15 0 31 -4
34 -10 9 -14 89 -12 103 2 7 7 12 18 12 25 0 21 -46 63 -69 63 -11 0 -23 5
-26 10 -9 15 -78 11 -92 -5z"/>
<path d="M5646 5994 c-10 -9 -15 -23 -12 -31 3 -8 6 -19 6 -24 0 -16 74 -40
115 -37 37 3 40 5 43 36 2 24 -1 34 -15 39 -10 4 -20 10 -23 13 -3 4 -26 10
-51 14 -37 5 -50 3 -63 -10z"/>
<path d="M6453 5803 c-18 -2 -33 -8 -33 -14 0 -5 -16 -9 -35 -9 -67 0 -107
-49 -71 -86 17 -16 106 -20 106 -4 0 6 16 10 35 10 75 0 121 49 84 89 -11 11
-27 20 -37 19 -9 0 -32 -3 -49 -5z"/>
<path d="M5422 5457 c-25 -27 -28 -43 -9 -60 33 -31 61 -37 162 -37 l105 0 0
35 c0 44 -23 56 -130 65 -41 4 -82 10 -90 14 -10 4 -24 -2 -38 -17z"/>
<path d="M6433 5366 c-27 -8 -33 -15 -33 -37 0 -15 6 -31 13 -37 19 -16 115
-25 162 -15 37 8 40 12 43 44 3 36 3 36 -50 46 -64 12 -92 12 -135 -1z"/>
<path d="M11903 275 c-31 -32 -29 -48 7 -63 25 -11 35 -11 60 0 36 16 38 37 7
66 -29 28 -46 27 -74 -3z"/>
<path d="M233 145 c-30 -33 -6 -85 39 -85 30 0 48 18 48 48 0 45 -58 70 -87
37z"/>
<path d="M13 85 c-29 -32 -6 -85 37 -85 44 0 67 55 36 86 -18 18 -57 18 -73
-1z"/>
</g>
</svg>
